<?xml version="1.0" encoding="utf-8"?>
<!-- Svg Vector Icons : http://www.onlinewebfonts.com/icon -->
<!DOCTYPE svg PUBLIC "-//W3C//DTD SVG 1.1//EN" "http://www.w3.org/Graphics/SVG/1.1/DTD/svg11.dtd">
<svg version="1.1" xmlns="http://www.w3.org/2000/svg" xmlns:xlink="http://www.w3.org/1999/xlink" x="0px" y="0px" viewBox="0 0 1000 1000" enable-background="new 0 0 1000 1000" xml:space="preserve">
<metadata> Svg Vector Icons : http://www.onlinewebfonts.com/icon </metadata>
<g><path d="M22.3,81.9C6.1,65.8,6,39,22.5,22.5C39.1,5.9,65.6,5.9,81.9,22.3L500,440.3L918.1,22.3c16.1-16.1,43-16.3,59.5,0.2c16.6,16.6,16.6,43.1,0.2,59.5L559.7,500l418.1,418.1c16.1,16.1,16.3,43-0.2,59.5c-16.6,16.6-43.1,16.6-59.5,0.2L500,559.7L81.9,977.7c-16.1,16.1-43,16.3-59.5-0.2c-16.6-16.6-16.6-43.1-0.2-59.5L440.3,500L22.3,81.9z"/></g>
</svg>